<svg xmlns="http://www.w3.org/2000/svg" viewBox="0 0 64 64" width="512" height="512"><g id="Checklist"><path d="M45,10H37V9a3,3,0,0,0-3-3H30.9A5.009,5.009,0,0,0,26,2H24a4.988,4.988,0,0,0-4.9,4H16a3,3,0,0,0-3,3v1H5a3,3,0,0,0-3,3V59a3,3,0,0,0,3,3H45a3,3,0,0,0,3-3V13A3,3,0,0,0,45,10ZM15,9a1,1,0,0,1,1-1h4a1,1,0,0,0,1-1,2.994,2.994,0,0,1,3-3h2a3,3,0,0,1,3,3,1,1,0,0,0,1,1h4a1,1,0,0,1,1,1v5H15Zm-1,7H36a1,1,0,0,0,1-1V12h5V56H8V12h5v3A1,1,0,0,0,14,16ZM46,59a1,1,0,0,1-1,1H5a1,1,0,0,1-1-1V13a1,1,0,0,1,1-1H6V57a1,1,0,0,0,1,1H43a1,1,0,0,0,1-1V12h1a1,1,0,0,1,1,1Z"></path><path d="M25,12a3,3,0,1,0-3-3A3,3,0,0,0,25,12Zm0-4a1,1,0,1,1-1,1A1,1,0,0,1,25,8Z"></path><path d="M59,18H58V17a1,1,0,0,0-1-1V13a3,3,0,0,0-6,0v3a1,1,0,0,0-1,1V54a.985.985,0,0,0,.081.392v0l3,7a1,1,0,0,0,1.838,0l3-7h0A.99.99,0,0,0,58,54V20h1a1,1,0,0,1,1,1V31a1,1,0,0,0,2,0V21A3,3,0,0,0,59,18ZM52,53V44h4v9Zm0-35h4V42H52Zm1-5a1,1,0,0,1,2,0v3H53Zm1,45.461L52.516,55h2.968Z"></path><path d="M25,24H37a1,1,0,0,0,0-2H25a1,1,0,0,0,0,2Z"></path><path d="M25,28H37a1,1,0,0,0,0-2H25a1,1,0,0,0,0,2Z"></path><path d="M25,36H37a1,1,0,0,0,0-2H25a1,1,0,0,0,0,2Z"></path><path d="M25,40H37a1,1,0,0,0,0-2H25a1,1,0,0,0,0,2Z"></path><path d="M25,49H37a1,1,0,0,0,0-2H25a1,1,0,0,0,0,2Z"></path><path d="M25,53H37a1,1,0,0,0,0-2H25a1,1,0,0,0,0,2Z"></path><path d="M10,21v8a1,1,0,0,0,1,1h8a1,1,0,0,0,1-1V23.414l1.707-1.707a1,1,0,0,0-1.414-1.414l-.363.363A.993.993,0,0,0,19,20H11A1,1,0,0,0,10,21Zm2,4V22h6v.586l-3,3-1.293-1.293a1,1,0,1,0-1.414,1.414l2,2a1,1,0,0,0,1.414,0L18,25.414V28H12Z"></path><path d="M20.293,32.293l-.363.363A.993.993,0,0,0,19,32H11a1,1,0,0,0-1,1v8a1,1,0,0,0,1,1h8a1,1,0,0,0,1-1V35.414l1.707-1.707a1,1,0,0,0-1.414-1.414ZM18,40H12V34h6v.586l-3,3-1.293-1.293a1,1,0,1,0-1.414,1.414l2,2a1,1,0,0,0,1.414,0L18,37.414Z"></path><path d="M20.293,44.293l-.363.363A.993.993,0,0,0,19,44H11a1,1,0,0,0-1,1v8a1,1,0,0,0,1,1h8a1,1,0,0,0,1-1V47.414l1.707-1.707a1,1,0,0,0-1.414-1.414ZM18,52H12V46h6v.586l-3,3-1.293-1.293a1,1,0,1,0-1.414,1.414l2,2a1,1,0,0,0,1.414,0L18,49.414Z"></path></g></svg>