<svg xmlns="http://www.w3.org/2000/svg" viewBox="0 0 64 64" width="512" height="512"><g id="Engineer-2" data-name="Engineer"><path d="M56.812,26.968A23.985,23.985,0,0,0,40.825,7.313a9.966,9.966,0,0,0-5.493-4.736A1,1,0,0,0,34,3.52V6.041A23.091,23.091,0,0,0,30,6.2V3.52a1,1,0,0,0-1.332-.943A9.981,9.981,0,0,0,22.7,8.337,24.113,24.113,0,0,0,9,29.55a2.731,2.731,0,0,1-.08.638L5.03,45.758A1,1,0,0,0,6,47h5v5a3,3,0,0,0,3,3h7a1,1,0,0,1,1,1v5a1,1,0,0,0,1,1H43a1,1,0,0,0,1-1V55.23a7,7,0,0,1,2.931-5.686A24.089,24.089,0,0,0,56.812,26.968ZM34,8.043v5.422L32,14.8l-2-1.333V8.223A21.087,21.087,0,0,1,34,8.043ZM28,5.074V14a1,1,0,0,0,.445.832l3,2a1,1,0,0,0,1.11,0l3-2A1,1,0,0,0,36,14V5.074A8,8,0,0,1,36.363,18.7,2.987,2.987,0,0,0,35,21.208V38.574a10.9,10.9,0,0,1-2,.375V25a1,1,0,0,0-2,0V38.949a10.9,10.9,0,0,1-2-.375V21.208A2.987,2.987,0,0,0,27.637,18.7a8.047,8.047,0,0,1-3.21-4.134A7.983,7.983,0,0,1,28,5.074ZM38.77,19.352A10.969,10.969,0,0,1,37,37.786V21.208a.994.994,0,0,1,.456-.832A9.811,9.811,0,0,0,38.77,19.352Zm-13.54,0a9.8,9.8,0,0,0,1.313,1.024.992.992,0,0,1,.457.832V37.786a10.969,10.969,0,0,1-1.77-18.434ZM45.769,47.916A9.009,9.009,0,0,0,42,55.23V60H24V56a3,3,0,0,0-3-3H14a1,1,0,0,1-1-1V46a1,1,0,0,0-1-1H7.281l3.581-14.336a4.657,4.657,0,0,0,.138-1.1A22.109,22.109,0,0,1,22.065,10.926,10.069,10.069,0,0,0,22,12a9.914,9.914,0,0,0,1.907,5.85,13,13,0,1,0,16.186,0,9.9,9.9,0,0,0,1.662-8.03,21.994,21.994,0,0,1,4.014,38.1Z"></path></g></svg>