<svg xmlns="http://www.w3.org/2000/svg" viewBox="0 0 64 64" width="512" height="512"><g id="Welding"><path d="M49,20H15a1,1,0,0,0-1,1V35a1,1,0,0,0,1,1H49a1,1,0,0,0,1-1V21A1,1,0,0,0,49,20ZM31.414,34l3.293-3.293a1,1,0,0,0-1.414-1.414L28.586,34H16v-.551l8.665-7.7a1,1,0,1,0-1.33-1.5L16,30.773V22H34.586l-7.293,7.293a1,1,0,1,0,1.414,1.414L37.414,22h3.172l-4.293,4.293a1,1,0,1,0,1.414,1.414L43.414,22H48v3.586l-4.707,4.707a1,1,0,1,0,1.414,1.414L48,28.414V34Z"></path><path d="M31,18h2a1,1,0,0,0,0-2H31a1,1,0,0,0,0,2Z"></path><path d="M37,18h2a1,1,0,0,0,0-2H37a1,1,0,0,0,0,2Z"></path><path d="M43,18h2a1,1,0,0,0,0-2H43a1,1,0,0,0,0,2Z"></path><path d="M25,18h2a1,1,0,0,0,0-2H25a1,1,0,0,0,0,2Z"></path><path d="M19,18h2a1,1,0,0,0,0-2H19a1,1,0,0,0,0,2Z"></path><path d="M33,38H31a1,1,0,0,0,0,2h2a1,1,0,0,0,0-2Z"></path><path d="M39,38H37a1,1,0,0,0,0,2h2a1,1,0,0,0,0-2Z"></path><path d="M45,38H43a1,1,0,0,0,0,2h2a1,1,0,0,0,0-2Z"></path><path d="M51,38H49a1,1,0,0,0,0,2h2a1,1,0,0,0,0-2Z"></path><path d="M27,38H25a1,1,0,0,0,0,2h2a1,1,0,0,0,0-2Z"></path><path d="M21,38H19a1,1,0,0,0,0,2h2a1,1,0,0,0,0-2Z"></path><path d="M13,40h2a1,1,0,0,0,0-2H13a1,1,0,0,0,0,2Z"></path><path d="M61,21H59a3,3,0,0,0-2.816,2H54A21.023,21.023,0,0,0,33,2H31A21.023,21.023,0,0,0,10,23H7.816A3,3,0,0,0,5,21H3a1,1,0,0,0-1,1V34a1,1,0,0,0,1,1H5a3,3,0,0,0,2.816-2H10V49A13.015,13.015,0,0,0,23,62H41A13.015,13.015,0,0,0,54,49V33h2.184A3,3,0,0,0,59,35h2a1,1,0,0,0,1-1V22A1,1,0,0,0,61,21ZM5,33H4V23H5a1,1,0,0,1,1,1v8A1,1,0,0,1,5,33Zm3-2V25h2v6Zm44,8V49A11.013,11.013,0,0,1,41,60H23A11.013,11.013,0,0,1,12,49V23a18.914,18.914,0,0,1,.705-5.06A.968.968,0,0,0,13,18h2a1,1,0,0,0,0-2H13.353A19.019,19.019,0,0,1,31,4h2A19.019,19.019,0,0,1,50.647,16H49a1,1,0,0,0,0,2h2a.968.968,0,0,0,.3-.06A18.914,18.914,0,0,1,52,23Zm2-14h2v6H54Zm6,8H59a1,1,0,0,1-1-1V24a1,1,0,0,1,1-1h1Z"></path></g></svg>