<svg xmlns="http://www.w3.org/2000/svg" viewBox="0 0 512 512" style="height: 64px; fill: #d7d7d7;"><g><path d="M17.53,189.7,47,195.59a117.13,117.13,0,0,0,6.92,16.71l-16.67,25A21.87,21.87,0,0,0,40,264.81L53.17,278a21.86,21.86,0,0,0,27.51,2.72l25-16.66A117.13,117.13,0,0,0,122.39,271l5.89,29.46A21.86,21.86,0,0,0,149.66,318h18.66a21.86,21.86,0,0,0,21.38-17.53L195.59,271a117.13,117.13,0,0,0,16.71-6.92l25,16.66A21.84,21.84,0,0,0,264.81,278l13.2-13.2a21.86,21.86,0,0,0,2.72-27.51l-16.66-25A117.13,117.13,0,0,0,271,195.59l29.46-5.89A21.86,21.86,0,0,0,318,168.32v-1.25h26.95V277.2a8.08,8.08,0,1,0,16.16,0V167.07H478.82a240,240,0,0,1,8.9,26.86,8.08,8.08,0,0,0,15.62-4.18C473.49,78,371.78,0,256,0a259.47,259.47,0,0,0-43.63,3.7,8.09,8.09,0,1,0,2.74,15.94A240.3,240.3,0,0,1,471.67,150.91H361.1V105.1a105.28,105.28,0,0,0-24-66.86,8.08,8.08,0,1,0-12.47,10.29,89.05,89.05,0,0,1,20.31,56.57v45.81H318v-1.25a21.86,21.86,0,0,0-17.53-21.38L271,122.39a117.13,117.13,0,0,0-6.92-16.71l16.67-25A21.87,21.87,0,0,0,278,53.17L264.81,40a21.86,21.86,0,0,0-27.51-2.72l-25,16.66A118.3,118.3,0,0,0,195.59,47L189.7,17.53A21.86,21.86,0,0,0,168.32,0H149.66a21.86,21.86,0,0,0-21.38,17.53L122.39,47a117.13,117.13,0,0,0-16.71,6.92l-25-16.67A21.86,21.86,0,0,0,53.17,40L40,53.17a21.86,21.86,0,0,0-2.73,27.51l16.67,25A117.13,117.13,0,0,0,47,122.39l-29.46,5.89A21.86,21.86,0,0,0,0,149.66v18.66A21.86,21.86,0,0,0,17.53,189.7Zm-1.36-40a5.65,5.65,0,0,1,4.53-5.53l34.2-6.84a8.07,8.07,0,0,0,6.2-5.75,100.92,100.92,0,0,1,9.27-22.35,8.09,8.09,0,0,0-.32-8.45l-19.35-29a5.65,5.65,0,0,1,.7-7.11L64.6,51.4a5.65,5.65,0,0,1,7.11-.7l29,19.35a8.09,8.09,0,0,0,8.45.32,100.89,100.89,0,0,1,22.35-9.26,8.1,8.1,0,0,0,5.75-6.2l6.84-34.21a5.65,5.65,0,0,1,5.53-4.53h18.66a5.63,5.63,0,0,1,5.52,4.53l6.85,34.21a8.08,8.08,0,0,0,5.75,6.2,100.89,100.89,0,0,1,22.35,9.26,8.09,8.09,0,0,0,8.45-.32l29-19.35a5.65,5.65,0,0,1,7.11.7l13.2,13.2a5.65,5.65,0,0,1,.7,7.11l-19.35,29a8.09,8.09,0,0,0-.32,8.45,100.89,100.89,0,0,1,9.26,22.35,8.08,8.08,0,0,0,6.2,5.75l34.21,6.84a5.65,5.65,0,0,1,4.53,5.53v18.66a5.66,5.66,0,0,1-4.53,5.53l-34.21,6.84a8.09,8.09,0,0,0-6.2,5.74,100.77,100.77,0,0,1-9.26,22.36,8.09,8.09,0,0,0,.32,8.45l19.35,29a5.65,5.65,0,0,1-.7,7.11l-13.2,13.2a5.65,5.65,0,0,1-7.11.7l-29-19.35a8.09,8.09,0,0,0-8.45-.32,100.89,100.89,0,0,1-22.35,9.26,8.08,8.08,0,0,0-5.75,6.2l-6.84,34.21a5.65,5.65,0,0,1-5.53,4.53H149.66a5.65,5.65,0,0,1-5.53-4.53l-6.84-34.21a8.08,8.08,0,0,0-5.75-6.2,100.89,100.89,0,0,1-22.35-9.26,8.08,8.08,0,0,0-8.45.32l-29,19.35a5.65,5.65,0,0,1-7.11-.7l-13.2-13.2a5.65,5.65,0,0,1-.7-7.11l19.35-29a8.09,8.09,0,0,0,.32-8.45,100.77,100.77,0,0,1-9.26-22.36,8.07,8.07,0,0,0-6.2-5.74L20.7,173.85a5.65,5.65,0,0,1-4.53-5.53V149.66Z"></path><path d="M159,212.35a53.05,53.05,0,0,0,37.34-15.25A8.09,8.09,0,1,0,185,185.55,37.18,37.18,0,1,1,196.18,159a8.08,8.08,0,0,0,16.16,0A53.36,53.36,0,1,0,159,212.35Z"></path><path d="M353,369.72A37.19,37.19,0,1,0,390.2,406.9,37.23,37.23,0,0,0,353,369.72Zm0,58.2a21,21,0,1,1,21-21A21,21,0,0,1,353,427.92Z"></path><path d="M509.79,222.22a8.08,8.08,0,1,0-16,2.11A243.88,243.88,0,0,1,495.83,256a240.65,240.65,0,0,1-17.05,88.93H436.06a16.87,16.87,0,0,0-4.5-8.1l-8.48-8.48a17,17,0,0,0-21.33-2.11L387.07,336a79.29,79.29,0,0,0-8-3.32l-3.46-17.31A16.94,16.94,0,0,0,359,301.81H347a16.94,16.94,0,0,0-16.57,13.59L327,332.71a80.08,80.08,0,0,0-8,3.32l-14.68-9.79a17,17,0,0,0-21.33,2.11l-8.49,8.49a17,17,0,0,0-2.11,21.32l9.79,14.69a80.08,80.08,0,0,0-3.32,8l-17.31,3.46a17,17,0,0,0-13.59,16.58v12a17,17,0,0,0,13.59,16.57l17.31,3.46a79.12,79.12,0,0,0,3.32,8l-9.79,14.69A17,17,0,0,0,274.46,477l8.48,8.48a16.94,16.94,0,0,0,21.33,2.11L319,477.78a77.86,77.86,0,0,0,8,3.33l3.47,17.3A16.93,16.93,0,0,0,347,512h12a16.94,16.94,0,0,0,16.57-13.59l3.46-17.3a77.11,77.11,0,0,0,8-3.33l14.68,9.79a16.94,16.94,0,0,0,21.33-2.11l8.48-8.48a17,17,0,0,0,2.12-21.33L423.89,441a79.12,79.12,0,0,0,3.32-8l17.31-3.46a16.94,16.94,0,0,0,13.58-16.57v-12a17,17,0,0,0-13.58-16.58h0l-17.31-3.46a80.08,80.08,0,0,0-3.32-8l7.83-11.75h39.91c-1.74,3.57-3.57,7.11-5.5,10.59a8.09,8.09,0,1,0,14.16,7.81,250.75,250.75,0,0,0,11.16-22.9,8.47,8.47,0,0,0,.38-.87,257.28,257.28,0,0,0,18-133.51Zm-68.44,178a.74.74,0,0,1,.59.72v12a.73.73,0,0,1-.59.72l-22,4.4a8.08,8.08,0,0,0-6.2,5.75,62.26,62.26,0,0,1-5.69,13.73,8.07,8.07,0,0,0,.32,8.45l12.44,18.67a.73.73,0,0,1-.1.92L411.65,474a.75.75,0,0,1-.93.09l-18.66-12.44a8.09,8.09,0,0,0-8.45-.32,62.18,62.18,0,0,1-13.73,5.69,8.1,8.1,0,0,0-5.75,6.2l-4.4,22a.74.74,0,0,1-.72.59H347a.75.75,0,0,1-.72-.59l-4.39-22a8.1,8.1,0,0,0-5.75-6.2,61.78,61.78,0,0,1-13.73-5.69,8.09,8.09,0,0,0-8.46.32L295.3,474.12a.75.75,0,0,1-.93-.09l-8.48-8.49a.73.73,0,0,1-.09-.92L298.24,446a8.09,8.09,0,0,0,.32-8.45,61.78,61.78,0,0,1-5.69-13.73,8.1,8.1,0,0,0-6.2-5.75l-22-4.4a.74.74,0,0,1-.59-.72v-12a.75.75,0,0,1,.59-.72l22-4.39a8.1,8.1,0,0,0,6.2-5.75,61.78,61.78,0,0,1,5.69-13.73,8.1,8.1,0,0,0-.32-8.46L285.8,349.19a.73.73,0,0,1,.09-.92l8.49-8.49a.74.74,0,0,1,.92-.09L314,352.13a8.1,8.1,0,0,0,8.46.32,61.78,61.78,0,0,1,13.73-5.69,8.07,8.07,0,0,0,5.74-6.2l4.4-22A.75.75,0,0,1,347,318h12a.73.73,0,0,1,.72.59l4.4,22a8.1,8.1,0,0,0,5.75,6.2,62.18,62.18,0,0,1,13.73,5.69,8.09,8.09,0,0,0,8.45-.32l18.66-12.44a.73.73,0,0,1,.93.09l8.48,8.49a.71.71,0,0,1,.09.92l-12.44,18.67a8.09,8.09,0,0,0-.31,8.45A62.26,62.26,0,0,1,413.16,390a8.08,8.08,0,0,0,6.2,5.75Z"></path><path d="M271.08,495.36c-5,.31-10.06.47-15.08.47A238.26,238.26,0,0,1,86.41,425.59,8.08,8.08,0,1,0,75,437a254.33,254.33,0,0,0,181,75c5.35,0,10.76-.17,16.08-.5a8.09,8.09,0,0,0-1-16.14Z"></path><path d="M40.31,361.1H150.9v45.81a104.63,104.63,0,0,0,17.65,58.3,8.08,8.08,0,0,0,13.44-9,88.5,88.5,0,0,1-14.92-49.32V361.1h80.85a8.09,8.09,0,0,0,0-16.17H167.07V339a8.09,8.09,0,0,0-16.17,0v5.93H33.14A241.76,241.76,0,0,1,21.6,205a8.08,8.08,0,0,0-15.8-3.42A257.47,257.47,0,0,0,0,256,253.81,253.81,0,0,0,51.15,409.55a8.08,8.08,0,1,0,12.93-9.7A241.44,241.44,0,0,1,40.31,361.1Z"></path></g></svg>