<svg xmlns="http://www.w3.org/2000/svg" viewBox="0 0 512 512"><title>Asset 1</title><g id="Layer_2" data-name="Layer 2"><g id="Layer_1-2" data-name="Layer 1"><path d="M503.92,495.83H490.44V299.12a8.09,8.09,0,0,0-8.08-8.09H331.45a8.09,8.09,0,0,0,0,16.17H474.27v37.73H256a8.08,8.08,0,0,0-8.08,8.08v75.45a8.09,8.09,0,0,0,8.08,8.09H474.27v59.28H406.91a8.09,8.09,0,1,0,0,16.17h97a8.09,8.09,0,0,0,0-16.17Zm-29.65-75.45H415v-35a8.09,8.09,0,1,0-16.17,0v35H339.54v-35a8.09,8.09,0,1,0-16.17,0v35H264.09V361.1H474.28v59.28Z"></path><path d="M212.88,156.29a40.42,40.42,0,1,0-40.42-40.42A40.47,40.47,0,0,0,212.88,156.29Zm0-64.67a24.26,24.26,0,1,1-24.25,24.25A24.28,24.28,0,0,1,212.88,91.62Z"></path><path d="M374.57,495.83H207a29.59,29.59,0,0,0,2.76-18.77L196,401.6a29.64,29.64,0,0,0-29.17-24.34h-7.13a29.62,29.62,0,0,0-29.16,24.34l-13.72,75.46a29.52,29.52,0,0,0,2.75,18.77H37.73V93.46l38.71,8A8.09,8.09,0,1,0,79.7,85.59l-48.43-10a8.07,8.07,0,0,0-9.71,7.92V495.83H8.08a8.09,8.09,0,0,0,0,16.17H374.57a8.09,8.09,0,0,0,0-16.17ZM190.88,491a13.4,13.4,0,0,1-10.34,4.84h-9.2V450a8.09,8.09,0,0,0-16.17,0v45.81H146A13.47,13.47,0,0,1,132.71,480l13.72-75.46a13.47,13.47,0,0,1,13.26-11.06h7.13a13.47,13.47,0,0,1,13.26,11.06L193.79,480A13.41,13.41,0,0,1,190.88,491Z"></path><path d="M338.94,155.47,388,165.58v101.2a8.09,8.09,0,0,0,16.17,0V159a8.08,8.08,0,0,0-6.45-7.92L342.2,139.63a8.09,8.09,0,1,0-3.26,15.84Z"></path><path d="M111.39,140.08,131.12,144a87.67,87.67,0,0,0,4,9.77L124,170.53a18,18,0,0,0,2.23,22.57l9.43,9.42a17.94,17.94,0,0,0,22.57,2.24L175,193.59a85.87,85.87,0,0,0,9.77,4l3.94,19.73a17.94,17.94,0,0,0,17.54,14.38h13.33a17.93,17.93,0,0,0,17.53-14.38L241,197.64a87.52,87.52,0,0,0,9.76-4l16.75,11.16a17.94,17.94,0,0,0,22.57-2.24l9.42-9.42a17.94,17.94,0,0,0,2.24-22.57L290.6,153.79a85.87,85.87,0,0,0,4-9.77l19.73-3.94a17.94,17.94,0,0,0,14.38-17.54V109.21a18,18,0,0,0-14.38-17.54l-19.73-3.94a85.87,85.87,0,0,0-4-9.77l11.17-16.74a17.94,17.94,0,0,0-2.24-22.57l-9.42-9.42A17.94,17.94,0,0,0,267.54,27L250.8,38.16a85.87,85.87,0,0,0-9.77-4l-3.95-19.73A17.93,17.93,0,0,0,219.55,0H206.22a18,18,0,0,0-17.54,14.38l-3.94,19.73a87.67,87.67,0,0,0-9.77,4L158.23,27a18,18,0,0,0-22.57,2.23l-9.42,9.43A17.94,17.94,0,0,0,124,61.22L135.17,78a85.87,85.87,0,0,0-4,9.77l-19.73,3.94A17.94,17.94,0,0,0,97,109.21v13.33A18,18,0,0,0,111.39,140.08Zm1.79-30.87a1.71,1.71,0,0,1,1.38-1.68L139,102.64a8.1,8.1,0,0,0,6.2-5.75,69.69,69.69,0,0,1,6.41-15.46,8.09,8.09,0,0,0-.32-8.45L137.46,52.25a1.73,1.73,0,0,1,.21-2.17l9.43-9.42a1.71,1.71,0,0,1,2.16-.22L170,54.27a8.08,8.08,0,0,0,8.46.31,69.86,69.86,0,0,1,15.45-6.4,8.1,8.1,0,0,0,5.75-6.2l4.89-24.43a1.71,1.71,0,0,1,1.68-1.38h13.33a1.72,1.72,0,0,1,1.68,1.38L226.12,42a8.08,8.08,0,0,0,5.75,6.2,70.06,70.06,0,0,1,15.45,6.4,8.06,8.06,0,0,0,8.45-.31l20.74-13.83a1.71,1.71,0,0,1,2.16.22l9.43,9.42a1.74,1.74,0,0,1,.21,2.17L274.49,73a8.09,8.09,0,0,0-.32,8.45,70.17,70.17,0,0,1,6.41,15.46,8.08,8.08,0,0,0,6.2,5.75l24.43,4.89a1.71,1.71,0,0,1,1.38,1.68v13.33a1.72,1.72,0,0,1-1.38,1.68l-24.43,4.89a8.05,8.05,0,0,0-6.2,5.74,69.69,69.69,0,0,1-6.41,15.46,8.09,8.09,0,0,0,.32,8.45l13.82,20.74a1.73,1.73,0,0,1-.21,2.16l-9.43,9.43a1.72,1.72,0,0,1-2.16.21l-20.73-13.82a8.1,8.1,0,0,0-8.46-.32,69.39,69.39,0,0,1-15.45,6.4,8.1,8.1,0,0,0-5.75,6.2l-4.89,24.44a1.71,1.71,0,0,1-1.68,1.38H206.22a1.71,1.71,0,0,1-1.68-1.38l-4.89-24.44a8.1,8.1,0,0,0-5.75-6.2,69.39,69.39,0,0,1-15.45-6.4,8.09,8.09,0,0,0-8.46.32L149.26,191.3a1.72,1.72,0,0,1-2.16-.21l-9.43-9.43a1.7,1.7,0,0,1-.21-2.16l13.82-20.74a8.09,8.09,0,0,0,.32-8.45,69.49,69.49,0,0,1-6.41-15.46,8.07,8.07,0,0,0-6.2-5.74l-24.43-4.89a1.72,1.72,0,0,1-1.38-1.68V109.21Z"></path><path d="M159,291a8.09,8.09,0,0,0-8.09,8.09V353a8.09,8.09,0,1,0,16.17,0V307.2h132a8.09,8.09,0,1,0,0-16.17Z"></path></g></g></svg>