<svg xmlns="http://www.w3.org/2000/svg" viewBox="0 0 512 512" style="height:64px;"><g style="fill:#fff;"><path d="M482.36,0H105.1a8.09,8.09,0,1,0,0,16.17H482.36a13.48,13.48,0,0,1,13.47,13.47V291H450a8.09,8.09,0,0,0,0,16.17h45.81v78.15A13.52,13.52,0,0,1,489.09,397a8.09,8.09,0,0,0,8.1,14A29.77,29.77,0,0,0,512,385.35V29.64A29.68,29.68,0,0,0,482.36,0Z"></path><path d="M420.38,353A29.64,29.64,0,1,0,450,323.37,29.68,29.68,0,0,0,420.38,353ZM450,339.54A13.47,13.47,0,1,1,436.55,353,13.48,13.48,0,0,1,450,339.54Z"></path><path d="M177.85,406.9a8.08,8.08,0,0,0-8.08-8.08H29.64a13.48,13.48,0,0,1-13.47-13.47V307.2H212.88a8.09,8.09,0,1,0,0-16.17H16.17V29.64A13.48,13.48,0,0,1,29.64,16.17H72.76A8.09,8.09,0,0,0,72.76,0H29.64A29.68,29.68,0,0,0,0,29.64V385.35A29.68,29.68,0,0,0,29.64,415H169.77A8.09,8.09,0,0,0,177.85,406.9Z"></path><path d="M454,400.72l-71.3-21.39V354.05a72.76,72.76,0,0,0,40.68-54.65l9-58.41a23.33,23.33,0,0,0,8.17-38.29h0L424.75,187l-11.13-33.38a51.13,51.13,0,0,0-43.45-34.76,18.89,18.89,0,0,0-17.16-11H309.89a18.89,18.89,0,0,0-17.16,11,51.14,51.14,0,0,0-43.45,34.76L238.15,187,222.41,202.7A23.33,23.33,0,0,0,230.59,241l9,58.41a72.76,72.76,0,0,0,40.68,54.65v25.28L209,400.72a50.9,50.9,0,0,0-36.49,49v43.37A18.88,18.88,0,0,0,191.32,512h194a8.09,8.09,0,0,0,0-16.17H258.7V471.58a8.09,8.09,0,0,0-16.17,0v24.25h-51.2a2.7,2.7,0,0,1-2.7-2.69V449.77a34.83,34.83,0,0,1,25-33.56l75.92-22.78h83.86l75.93,22.78a34.82,34.82,0,0,1,25,33.56v43.37a2.69,2.69,0,0,1-2.69,2.69h-51.2V471.58a8.09,8.09,0,0,0-16.17,0v32.34a8.08,8.08,0,0,0,8.08,8.08h59.29a18.88,18.88,0,0,0,18.86-18.86V449.77A50.89,50.89,0,0,0,454,400.72Zm-215-174.36a7.16,7.16,0,0,1-5.06-12.23L250.94,197a8.11,8.11,0,0,0,1.95-3.16l11.73-35.19A35,35,0,0,1,291,135.4v34.37a8.09,8.09,0,0,0,16.17,0V126.65a2.7,2.7,0,0,1,2.7-2.69H353a2.7,2.7,0,0,1,2.7,2.69v43.12a8.09,8.09,0,0,0,16.17,0V135.4a35,35,0,0,1,26.4,23.29L410,193.88a8.06,8.06,0,0,0,2,3.16l17.09,17.1A7.16,7.16,0,0,1,424,226.36H238.91ZM351.42,361.1a73,73,0,0,0,15.07-1.58v17.74H296.42V359.52a72.87,72.87,0,0,0,15.07,1.58h9.19a8.09,8.09,0,0,0,0-16.17h-9.19a56.29,56.29,0,0,1-55.94-48l-8.37-54.41H415.72l-8.37,54.41a56.29,56.29,0,0,1-55.93,48,8.09,8.09,0,0,0,0,16.17Z"></path><path d="M62,323.37a29.64,29.64,0,0,0,0,59.28h75.45a29.64,29.64,0,0,0,0-59.28ZM150.9,353a13.48,13.48,0,0,1-13.47,13.47H62a13.47,13.47,0,0,1,0-26.94h75.45A13.48,13.48,0,0,1,150.9,353Z"></path><path d="M153.6,43.12H78.15A13.49,13.49,0,0,0,64.67,56.59V88.93A13.49,13.49,0,0,0,78.15,102.4h29.64v19.26L72.12,139.49a13.42,13.42,0,0,0-7.45,12v4.12a13.4,13.4,0,0,0,7.45,12.05l35.67,17.84V204.8H78.15a13.49,13.49,0,0,0-13.48,13.47v32.34a13.5,13.5,0,0,0,13.48,13.48H153.6a13.49,13.49,0,0,0,13.47-13.48v-8.08h24.26a8.09,8.09,0,0,0,0-16.17H167.07v-8.08A13.49,13.49,0,0,0,153.6,204.8H124V185.54l35.66-17.83a13.38,13.38,0,0,0,7.45-12.05v-4.12a13.4,13.4,0,0,0-7.44-12L124,121.66V102.4H153.6a13.48,13.48,0,0,0,13.47-13.47V80.84H431.16V159a8.09,8.09,0,0,0,16.17,0V72.76a8.09,8.09,0,0,0-8.09-8.09H167.07V56.59A13.48,13.48,0,0,0,153.6,43.12ZM150.9,221v26.95H80.84V221Zm0-67.76V154l-35,17.52L80.84,154v-.78l35-17.52Zm0-67H80.84V59.28H150.9Z"></path><path d="M183.24,353a29.65,29.65,0,1,0,29.64-29.64A29.68,29.68,0,0,0,183.24,353Zm43.12,0a13.48,13.48,0,1,1-13.48-13.47A13.49,13.49,0,0,1,226.36,353Z"></path></g></svg>